# xmcd CD database file
#
# Track frame offsets:
#	150
#	24765
#	35055
#	53725
#	72320
#	96995
#	117280
#	134265
#	149145
#	171920
#	190570
#	207135
#	237255
#	257795
#
# Disc length: 3824 seconds
#
# Revision: 1
# Processed by: cddbd v1.5.2PL0 Copyright (c) Steve Scherf et al.
# Submitted via: Feurio! 1.68 - http://www.feurio.com
#
DISCID=cb0eee0e
DTITLE=Various Artist - Best Of The Best 2005 Vol. 6
DYEAR=1900
DGENRE=R&B
TTITLE0=Positive Flow - City Streets
TTITLE1=Common - You Accused Me
TTITLE2=Urban Mystic - Supernatural
TTITLE3=Cherokee - Misty
TTITLE4=Smokey Robinson w/Roy Ayers - Quiet Storm
TTITLE5=Bass - X - All Inside
TTITLE6=K.E.M. - You Might Win
TTITLE7=Smokey Robinson - You're My World (Satisfaction)
TTITLE8=Gotan Project - Chunga's Revenge (The Violin Song)
TTITLE9=Marissa Rose - Forget About You
TTITLE10=Urban Mystic - A Womm's Gotta Have It
TTITLE11=Archie Love - Should've Been There For You
TTITLE12=Bobby Valentino - Slow Down
TTITLE13=Black Eyed Peas w/J. Brown - They Don't Want Music
EXTD=
EXTT0=
EXTT1=
EXTT2=
EXTT3=
EXTT4=
EXTT5=
EXTT6=
EXTT7=
EXTT8=
EXTT9=
EXTT10=
EXTT11=
EXTT12=
EXTT13=
PLAYORDER=
